<svg id="Layer_3" data-name="Layer 3" xmlns="http://www.w3.org/2000/svg" viewBox="0 0 800 800"><defs><style>.cls-1{fill:#dd7403;}.cls-2{fill:#f4ae00;}.cls-3{fill:#a81e2f;}</style></defs><path class="cls-1" d="M471.55,328.54c-21.18-25.84-70.36,28.15-70.36,28.15l7.18,1.9C415.55,360.5,493.43,355.21,471.55,328.54Zm-57.2,26.52S450.78,328.73,457.8,340C461.9,346.56,439.41,356.59,414.35,355.06Z"/><path class="cls-2" d="M459.75,291.48C430.71,267.17,399,358,399,358h7.43C413.82,358,499,324.29,459.75,291.48Zm-48.48,59.27S442.4,308,449.39,312.93,435.87,343.47,411.27,350.75Z"/><path class="cls-1" d="M328.44,328.54c21.19-25.84,70.37,28.15,70.37,28.15l-7.18,1.9C384.45,360.5,306.57,355.21,328.44,328.54Zm57.21,26.52S349.22,328.73,342.2,340C338.1,346.56,360.59,356.59,385.65,355.06Z"/><path class="cls-2" d="M340.25,291.48C369.28,267.17,401,358,401,358h-7.43C386.18,358,301,324.29,340.25,291.48Zm48.48,59.27S357.6,308,350.61,312.93,364.12,343.47,388.73,350.75Z"/><rect class="cls-3" x="297.42" y="358.02" width="205.17" height="40.12"/><rect class="cls-2" x="387.7" y="358.02" width="24.6" height="40.12"/></svg>